<?xml version="1.0" standalone="no"?>
<!DOCTYPE svg PUBLIC "-//W3C//DTD SVG 20010904//EN"
 "http://www.w3.org/TR/2001/REC-SVG-20010904/DTD/svg10.dtd">
<svg version="1.0" xmlns="http://www.w3.org/2000/svg"
 width="1300.000000pt" height="934.000000pt" viewBox="0 0 1300.000000 934.000000"
 preserveAspectRatio="xMidYMid meet">

<g transform="translate(0.000000,934.000000) scale(0.100000,-0.100000)"
fill="#000000" stroke="none">
<path d="M6340 8583 c-269 -12 -570 -57 -820 -122 -252 -66 -242 -63 -263 -98
-10 -18 -23 -30 -28 -27 -5 3 -14 2 -21 -2 -8 -5 -6 -10 8 -16 16 -7 16 -8 -4
-4 -17 3 -22 1 -18 -9 5 -15 -17 -39 -27 -28 -13 13 -7 22 11 16 13 -5 14 -3
5 7 -14 15 9 44 45 54 12 4 22 11 22 16 0 11 -80 -12 -172 -51 -40 -17 -91
-38 -112 -46 -64 -23 -372 -179 -465 -235 -118 -71 -321 -210 -406 -277 -244
-194 -579 -525 -567 -561 3 -8 2 -12 -2 -9 -12 11 -109 -100 -204 -234 -111
-156 -178 -263 -277 -444 l-75 -138 108 -110 107 -110 -107 104 c-59 58 -109
103 -111 100 -7 -9 -85 -187 -102 -231 -20 -55 -26 -61 -80 -78 -67 -21 -195
-89 -254 -135 -167 -130 -274 -293 -326 -501 l-26 -99 3 -670 3 -670 28 -88
c60 -193 171 -351 326 -467 71 -52 216 -125 269 -136 27 -5 34 -16 68 -98 80
-193 125 -281 135 -266 8 12 9 10 4 -7 -10 -37 177 -356 328 -558 176 -236
447 -526 637 -682 174 -143 408 -310 482 -344 28 -12 92 -4 70 10 -14 8 9 33
41 44 9 4 17 13 17 20 0 8 11 19 25 25 48 22 101 12 142 -27 12 -12 32 -21 45
-21 17 0 19 3 9 9 -9 6 2 9 30 9 l44 -1 -48 -15 c-50 -17 -105 -8 -100 16 2 7
-5 11 -15 10 -9 -1 -26 0 -37 1 -17 1 -18 3 -5 12 12 8 9 9 -10 4 -14 -4 -33
-7 -42 -6 -10 0 -18 -5 -18 -10 0 -16 -83 -99 -100 -99 -63 -1 460 -258 640
-314 30 -10 69 -24 85 -31 91 -39 420 -123 609 -155 71 -11 192 -27 270 -35
166 -17 570 -19 736 -5 488 45 1027 201 1440 418 162 85 250 143 250 164 0 24
-101 219 -116 225 -7 2 -36 -11 -65 -30 -318 -201 -802 -381 -1229 -456 -274
-49 -681 -66 -960 -41 -255 23 -595 94 -825 173 -124 43 -341 129 -415 165
-30 14 -61 26 -67 25 -7 0 -10 3 -7 8 3 5 1 9 -3 9 -14 0 -245 134 -343 199
-96 64 -218 152 -255 183 -11 9 -63 52 -115 96 -104 87 -324 307 -417 417
-173 204 -364 495 -474 718 l-33 67 -96 -92 -95 -93 95 97 94 98 -27 56 c-16
31 -26 59 -23 62 3 3 42 4 87 3 l81 -2 142 138 141 138 -127 -130 c-71 -72
-128 -133 -128 -137 0 -4 37 -8 81 -10 l82 -3 19 -35 c10 -19 38 -71 61 -115
91 -174 354 -540 428 -594 17 -13 50 -26 73 -28 51 -6 119 28 303 150 256 170
282 238 198 503 -19 60 -34 113 -35 118 0 7 233 12 301 6 4 0 10 -12 13 -26 4
-14 27 -68 52 -120 72 -152 102 -160 308 -88 275 95 631 173 851 185 22 2 43
4 47 6 4 2 39 6 78 8 38 2 84 11 102 20 47 23 328 23 375 0 19 -9 81 -20 150
-26 154 -12 244 -23 380 -48 122 -22 341 -73 386 -90 15 -6 27 -9 27 -7 0 2
-20 39 -43 82 -24 44 -77 142 -117 219 -40 77 -77 146 -83 153 -7 9 -458 12
-2194 12 -1955 0 -2192 2 -2261 16 -178 37 -343 164 -420 325 -68 144 -67 126
-67 814 0 571 1 625 18 685 63 222 248 399 464 445 49 11 139 15 323 15 l255
0 -125 128 -125 127 130 -127 130 -128 1790 0 1790 0 -140 140 -140 140 -605
0 -606 0 -125 34 c-68 19 -198 59 -288 90 -90 31 -181 56 -201 56 -47 0 -85
-40 -119 -123 l-23 -57 -154 0 c-85 0 -154 2 -154 4 0 2 14 37 31 77 59 142
71 183 66 222 -7 52 -37 82 -132 129 -44 22 -93 50 -110 62 -39 29 -218 137
-272 165 -49 24 -119 37 -158 27 -53 -13 -152 -139 -292 -373 -43 -71 -98
-170 -123 -220 l-45 -92 -127 -1 c-93 0 -128 -3 -128 -12 0 -9 -3 -9 -12 0 -7
7 -29 12 -50 12 -21 0 -38 4 -38 8 0 21 186 373 260 492 268 430 645 818 1070
1100 107 71 125 85 94 76 -14 -4 -27 1 -44 19 -13 14 -20 25 -17 25 9 0 -31
40 -40 41 -5 1 -21 16 -38 34 -16 18 -39 38 -50 44 -15 9 -15 11 -2 7 9 -3 17
0 17 6 0 6 18 -7 40 -30 21 -23 44 -42 50 -42 5 0 10 -4 10 -10 0 -12 47 -59
54 -53 2 3 2 -4 0 -14 -4 -16 0 -19 28 -18 39 2 167 79 146 89 -7 3 -3 4 10 2
12 -2 20 -1 17 4 -3 4 2 10 10 14 18 6 21 91 4 102 -6 3 -9 15 -6 25 3 10 1
21 -4 24 -17 11 31 46 54 40 17 -5 19 -4 7 4 -11 8 -12 13 -4 21 9 9 16 6 28
-11 21 -31 33 -16 12 16 -15 22 -15 28 -3 40 15 14 57 10 57 -6 0 -5 6 -9 14
-9 17 0 31 31 17 39 -15 9 -16 34 -3 57 13 24 51 38 76 28 25 -9 19 -26 -6
-19 -18 5 -20 4 -8 -4 8 -6 38 -10 65 -9 28 0 39 3 25 5 -41 8 -50 25 -11 21
46 -4 48 -19 10 -62 -31 -36 -49 -45 -49 -26 0 6 7 10 15 10 21 0 19 27 -3 32
-14 4 -17 -2 -17 -36 l-1 -41 -43 3 -43 4 4 -39 c4 -33 0 -42 -29 -72 -19 -18
-37 -31 -40 -27 -4 3 2 13 13 21 16 13 17 16 4 25 -24 16 -27 12 -24 -34 l3
-44 -47 3 c-33 2 -41 0 -29 -7 10 -5 26 -6 37 -3 34 11 22 -4 -17 -20 -20 -8
-33 -18 -29 -22 3 -4 12 -1 18 5 7 7 17 12 22 12 6 0 -5 -14 -24 -30 -33 -29
-31 -28 55 13 125 62 175 84 290 129 688 273 1475 326 2202 148 947 -231 1746
-825 2262 -1680 66 -107 215 -409 208 -417 -9 -8 -321 -4 -328 5 -3 4 -36 65
-74 137 -71 137 -230 387 -298 468 -64 77 -118 93 -207 62 -44 -16 -262 -141
-317 -182 -17 -13 -69 -43 -115 -67 -145 -73 -154 -111 -73 -303 25 -59 45
-111 45 -115 0 -5 -69 -8 -154 -8 l-154 0 -21 58 c-12 31 -33 70 -47 86 -43
49 -75 46 -294 -27 -345 -116 -353 -117 -682 -117 l-283 0 140 -140 140 -140
1195 0 1195 0 135 133 135 132 -129 -132 -129 -131 269 -4 c261 -3 271 -4 342
-30 156 -56 280 -167 351 -312 67 -139 66 -124 66 -806 0 -687 2 -669 -72
-820 -49 -101 -148 -200 -258 -257 -143 -74 -130 -73 -1047 -74 l-813 0 100
-40 c55 -22 188 -73 295 -114 107 -41 301 -115 430 -164 129 -50 239 -91 245
-91 5 0 26 30 45 66 l35 66 163 1 c90 1 166 -1 168 -5 3 -4 -4 -25 -15 -46
l-20 -39 104 -103 c65 -65 108 -101 114 -95 8 9 91 193 125 280 15 36 23 42
74 59 297 97 523 355 587 671 14 71 16 161 12 740 -3 640 -4 662 -25 735 -70
244 -237 447 -461 560 -42 21 -95 43 -119 50 -23 7 -46 18 -51 24 -4 6 -32 67
-61 136 -29 69 -55 127 -57 129 -2 3 -52 -42 -111 -100 l-107 -104 107 110
107 110 -55 105 c-296 562 -706 1036 -1208 1395 -204 146 -404 264 -416 245
-4 -6 -11 -10 -16 -9 -21 4 -28 -2 -14 -12 13 -9 12 -10 -2 -5 -10 3 -18 1
-18 -4 0 -6 -5 -10 -10 -10 -16 0 19 48 38 52 13 3 8 10 -18 26 -41 26 -62 28
-54 7 4 -8 1 -22 -6 -30 -7 -9 -9 -19 -5 -23 4 -4 10 -1 12 6 9 23 25 12 19
-12 -4 -17 -1 -28 10 -34 9 -5 12 -12 7 -15 -14 -9 -74 59 -67 76 3 8 1 18 -5
21 -14 9 -2 37 13 29 7 -4 8 -3 1 5 -24 25 -88 52 -108 46 -12 -4 -19 -3 -15
1 11 12 -15 27 -132 77 -369 159 -834 263 -1289 288 -169 9 -217 10 -361 3z
m-1265 -303 c16 -7 12 -9 -18 -9 -23 -1 -36 3 -32 9 7 12 23 12 50 0z m75 -4
c0 -2 3 -11 6 -20 9 -23 -9 -20 -24 4 -10 17 -10 20 3 20 8 0 15 -2 15 -4z
m-213 -112 c-9 -10 -38 16 -31 28 4 6 13 4 22 -6 9 -8 13 -19 9 -22z m3116 -1
c-5 -12 -2 -15 10 -10 8 3 20 0 27 -7 8 -10 7 -15 -5 -20 -8 -3 -15 -1 -15 3
0 5 -9 7 -20 4 -15 -4 -20 0 -20 15 0 17 6 23 27 31 1 1 -1 -7 -4 -16z m-3033
-41 c0 -14 -39 -46 -47 -39 -3 4 2 16 12 27 19 21 35 26 35 12z m3133 -34 c18
-20 24 -35 18 -41 -13 -13 -31 0 -24 18 4 11 1 13 -11 9 -21 -8 -51 27 -33 38
18 12 20 10 50 -24z m71 -70 c22 -28 23 -34 10 -41 -9 -5 -18 -6 -21 -3 -4 3
-1 6 5 6 7 0 12 5 12 11 0 6 -6 9 -14 6 -17 -7 -45 23 -39 41 7 20 20 14 47
-20z m-3470 -3 c-3 -14 -2 -25 2 -25 5 0 7 -22 6 -50 -5 -68 -19 -63 -24 9 -4
68 0 91 13 91 5 0 7 -11 3 -25z m-914 -498 c0 -1 -71 -72 -157 -157 l-158
-155 155 158 c144 146 160 162 160 154z m2300 -1460 c0 -2 -15 -16 -32 -33
l-33 -29 29 33 c28 30 36 37 36 29z m-80 -80 c0 -2 -15 -16 -32 -33 l-33 -29
29 33 c28 30 36 37 36 29z m-80 -80 c0 -2 -15 -16 -32 -33 l-33 -29 29 33 c28
30 36 37 36 29z m1200 -2390 c0 -2 -17 -19 -37 -38 l-38 -34 34 38 c33 34 41
42 41 34z m2390 -122 c69 -69 122 -125 120 -125 -3 0 -61 56 -130 125 -69 69
-122 125 -120 125 3 0 61 -56 130 -125z m-3674 83 l29 -33 -32 29 c-31 28 -38
36 -30 36 2 0 16 -15 33 -32z m1204 -41 c0 -2 -17 -19 -37 -38 l-38 -34 34 38
c33 34 41 42 41 34z m-1124 -39 l29 -33 -32 29 c-18 17 -33 31 -33 33 0 8 8 1
36 -29z m1044 -41 c0 -2 -17 -19 -37 -38 l-38 -34 34 38 c33 34 41 42 41 34z
m-964 -39 l29 -33 -32 29 c-31 28 -38 36 -30 36 2 0 16 -15 33 -32z m884 -41
c0 -2 -15 -16 -32 -33 l-33 -29 29 33 c28 30 36 37 36 29z m-815 -27 c10 -11
16 -20 13 -20 -3 0 -13 9 -23 20 -10 11 -16 20 -13 20 3 0 13 -9 23 -20z
m-1088 -1920 c14 -11 19 -20 12 -27 -6 -6 -2 -9 13 -9 26 1 32 -25 8 -31 -13
-4 -13 -3 0 7 12 10 11 11 -7 7 -13 -3 -23 0 -23 6 0 5 -21 30 -47 54 -47 42
-47 43 -13 27 19 -10 45 -25 57 -34z m73 -80 c0 -5 -4 -10 -10 -10 -5 0 -10 5
-10 10 0 6 5 10 10 10 6 0 10 -4 10 -10z m62 -67 c-2 -7 2 -13 10 -13 8 0 28
-15 44 -32 25 -26 31 -43 32 -80 1 -39 -2 -48 -16 -48 -15 0 -15 -2 -2 -10 17
-11 1 -13 -24 -4 -14 5 -14 8 0 21 18 19 16 99 -3 115 -7 6 -13 8 -13 5 0 -3
-13 6 -28 21 -15 15 -26 32 -24 38 1 6 -4 17 -13 24 -12 10 -15 10 -15 0 0 -8
-3 -11 -6 -7 -3 3 -3 11 1 17 9 14 64 -31 57 -47z"/>
<path d="M8110 8100 c0 -5 5 -10 10 -10 6 0 10 5 10 10 0 6 -4 10 -10 10 -5 0
-10 -4 -10 -10z"/>
<path d="M8190 8020 c0 -5 5 -10 10 -10 6 0 10 5 10 10 0 6 -4 10 -10 10 -5 0
-10 -4 -10 -10z"/>
<path d="M4970 8230 c8 -5 22 -9 30 -9 10 0 8 3 -5 9 -27 12 -43 12 -25 0z"/>
<path d="M4877 8153 c-4 -3 -7 -11 -7 -17 0 -6 5 -5 12 2 6 6 9 14 7 17 -3 3
-9 2 -12 -2z"/>
<path d="M8235 8140 c3 -5 8 -10 11 -10 2 0 4 5 4 10 0 6 -5 10 -11 10 -5 0
-7 -4 -4 -10z"/>
<path d="M4795 8070 c-3 -5 -1 -10 4 -10 6 0 11 5 11 10 0 6 -2 10 -4 10 -3 0
-8 -4 -11 -10z"/>
<path d="M4792 8020 c0 -14 2 -19 5 -12 2 6 2 18 0 25 -3 6 -5 1 -5 -13z"/>
<path d="M6275 7852 c-424 -293 -774 -645 -1051 -1059 -120 -179 -126 -212
-46 -252 33 -16 176 -65 307 -104 187 -56 478 -111 676 -129 117 -10 129 -10
165 8 48 23 63 53 71 139 l6 66 -389 392 -389 392 380 -377 c209 -208 382
-378 385 -378 5 0 2 1142 -3 1302 l-2 76 -110 -76z"/>
<path d="M6630 7158 c0 -747 1 -774 19 -802 42 -63 77 -67 317 -36 243 31 471
83 711 160 164 53 189 64 208 94 25 38 13 73 -69 194 -291 434 -616 765 -1061
1078 -38 27 -82 57 -97 67 l-28 17 0 -772z m710 99 c0 -2 -15 -16 -32 -33
l-33 -29 29 33 c28 30 36 37 36 29z m-80 -80 c0 -2 -15 -16 -32 -33 l-33 -29
29 33 c28 30 36 37 36 29z m-80 -80 c0 -2 -15 -16 -32 -33 l-33 -29 29 33 c28
30 36 37 36 29z m-80 -80 c0 -2 -15 -16 -32 -33 l-33 -29 29 33 c28 30 36 37
36 29z m-80 -80 c0 -2 -15 -16 -32 -33 l-33 -29 29 33 c28 30 36 37 36 29z
m-80 -80 c0 -2 -15 -16 -32 -33 l-33 -29 29 33 c28 30 36 37 36 29z m-80 -80
c0 -2 -15 -16 -32 -33 l-33 -29 29 33 c28 30 36 37 36 29z m-80 -80 c0 -2 -15
-16 -32 -33 l-33 -29 29 33 c28 30 36 37 36 29z m-80 -80 c0 -2 -15 -16 -32
-33 l-33 -29 29 33 c28 30 36 37 36 29z"/>
<path d="M5565 7878 c-459 -151 -787 -326 -1152 -615 -112 -88 -143 -127 -143
-177 0 -53 63 -111 235 -217 152 -94 188 -109 248 -109 73 0 124 48 272 255
234 328 450 568 718 799 42 37 77 71 77 75 0 15 -51 31 -93 30 -23 0 -96 -19
-162 -41z m-195 -313 c30 -30 52 -55 49 -55 -2 0 -29 25 -59 55 -30 30 -52 55
-49 55 2 0 29 -25 59 -55z"/>
<path d="M7228 7908 c-16 -5 -28 -13 -28 -17 0 -4 44 -46 98 -93 271 -239 475
-466 697 -778 111 -156 180 -235 221 -250 76 -29 133 -8 341 124 180 115 219
167 179 244 -47 90 -453 378 -712 506 -43 22 -86 43 -94 48 -81 45 -237 107
-425 169 -180 58 -226 66 -277 47z"/>
<path d="M8908 5440 c-122 -21 -250 -83 -315 -152 -21 -24 -53 -71 -69 -103
-27 -56 -29 -67 -29 -180 0 -110 2 -125 27 -178 45 -95 210 -235 249 -211 7 4
9 3 6 -3 -7 -11 5 -17 185 -102 126 -60 170 -96 194 -156 16 -42 16 -48 0 -88
-21 -57 -76 -92 -168 -107 -121 -21 -236 0 -372 65 -49 24 -94 41 -101 39 -20
-8 -25 -40 -25 -171 l0 -122 57 -21 c119 -44 180 -54 363 -54 137 -1 191 3
250 17 158 39 284 135 332 255 19 48 23 76 23 173 0 112 -1 117 -34 183 -60
117 -147 182 -392 292 -67 30 -144 70 -170 89 -112 83 -104 196 19 253 51 24
69 26 162 26 118 0 200 -19 292 -65 l58 -29 0 153 0 154 -57 16 c-32 10 -87
22 -123 27 -76 11 -294 11 -362 0z m-354 -362 c3 6 17 7 31 4 32 -9 125 -90
125 -109 0 -8 4 -12 9 -9 5 3 14 0 20 -8 9 -10 8 -15 -2 -19 -13 -5 -83 59
-82 75 0 4 -17 19 -37 33 -27 18 -45 24 -63 19 -20 -5 -25 -2 -25 12 0 15 2
16 9 5 5 -8 11 -9 15 -3z m-34 -13 c0 -8 -4 -15 -10 -15 -5 0 -7 7 -4 15 4 8
8 15 10 15 2 0 4 -7 4 -15z m278 -169 c21 -22 29 -37 22 -41 -10 -6 -80 55
-80 70 0 15 29 1 58 -29z m68 -74 c6 -12 13 -20 16 -17 3 3 10 0 15 -7 13 -17
25 -130 12 -123 -5 4 -9 23 -10 43 0 33 -17 92 -18 67 -1 -9 -61 51 -61 61 0
15 36 -4 46 -24z m73 -109 c1 -7 -3 -13 -9 -13 -5 0 -10 15 -9 33 0 27 2 29 9
12 5 -11 9 -26 9 -32z m-36 -67 c-3 -4 -9 -2 -14 5 -13 22 -11 31 5 17 8 -7
12 -17 9 -22z m-20 -11 c4 -8 3 -16 -1 -19 -13 -8 -35 11 -28 23 10 15 23 14
29 -4z m-34 -41 c-6 -8 -17 -14 -23 -14 -6 0 -5 4 3 9 7 5 11 14 7 20 -5 7 -1
9 9 5 12 -5 13 -9 4 -20z m-39 6 c0 -5 -2 -10 -4 -10 -3 0 -8 5 -11 10 -3 6
-1 10 4 10 6 0 11 -4 11 -10z"/>
<path d="M3480 4675 l0 -755 161 0 161 0 -3 535 c-2 294 -4 535 -3 535 1 0 18
-28 40 -62 120 -197 378 -577 387 -571 6 3 7 1 3 -6 -7 -11 74 -142 124 -201
l21 -25 -6 24 c-5 17 -4 21 5 16 7 -4 9 -17 5 -32 -5 -21 7 -45 56 -119 l63
-94 173 0 173 0 0 323 c0 318 -3 372 -22 361 -5 -3 -6 -14 -3 -24 4 -12 -1
-19 -15 -23 -32 -8 -31 6 3 43 32 34 32 35 34 149 l2 115 -35 33 c-35 33 -27
48 8 16 16 -14 18 -14 18 0 0 9 -9 18 -20 22 -19 6 -19 7 5 31 l25 25 -2 217
-3 217 -155 0 -155 0 -3 -377 -2 -378 22 -1 23 0 -23 -12 c-23 -11 -23 -13
-20 -142 2 -98 0 -132 -9 -132 -7 0 -10 4 -7 8 5 9 -10 34 -124 209 -41 63
-103 158 -137 210 -34 52 -100 154 -147 225 -47 72 -124 190 -171 263 l-87
132 -180 0 -180 0 0 -755z m1270 166 c0 -26 -27 -34 -53 -15 l-22 16 23 -5
c15 -3 25 0 29 9 8 20 23 17 23 -5z m50 -25 c8 -11 9 -20 1 -33 -10 -17 -10
-17 -11 2 -1 11 -4 14 -7 8 -8 -22 -23 -14 -23 12 0 28 21 33 40 11z m-112
-16 c3 -7 0 -10 -6 -6 -12 7 -42 -3 -42 -15 0 -4 8 -5 17 -2 14 6 14 3 -3 -19
-10 -15 -20 -22 -22 -17 -2 5 -8 9 -14 9 -6 0 -8 -7 -4 -15 3 -8 1 -15 -3 -15
-23 0 -15 28 18 62 37 37 51 42 59 18z m103 -60 c5 0 9 5 9 10 0 6 5 10 10 10
22 0 8 -28 -17 -35 -16 -3 -38 -18 -50 -33 -17 -22 -24 -25 -34 -14 -11 10
-10 12 4 12 9 0 17 7 17 15 0 7 6 18 13 22 8 4 17 17 22 28 7 18 9 18 12 3 3
-10 9 -18 14 -18z m-182 -94 c10 -12 9 -21 -4 -43 l-16 -28 4 28 c3 21 1 27
-9 23 -9 -3 -14 2 -14 14 0 23 22 26 39 6z m-8 -93 c0 -15 2 -15 9 2 7 15 9
16 9 4 1 -9 -5 -22 -13 -28 -25 -21 -26 -63 -3 -85 15 -13 18 -20 10 -23 -16
-6 -17 -23 -2 -23 14 0 39 25 39 39 0 6 7 11 16 11 8 0 12 4 9 10 -3 6 1 7 9
4 12 -5 6 -15 -25 -45 -22 -21 -42 -39 -44 -39 -1 0 -20 16 -41 35 -21 19 -33
35 -27 35 7 0 15 -4 18 -10 3 -5 12 -10 18 -9 9 0 9 2 0 6 -7 2 -13 21 -13 41
l-1 37 -14 -30 c-7 -16 -14 -24 -14 -17 -1 18 40 102 50 102 5 0 9 -8 10 -17z
m-223 -51 c-10 -2 -18 -10 -18 -18 0 -8 -5 -12 -11 -9 -7 5 -4 13 7 26 9 10
22 15 28 11 7 -4 5 -8 -6 -10z m362 -9 c0 -14 -2 -15 -9 -4 -6 9 -11 10 -15 2
-4 -6 -12 -11 -18 -11 -7 0 -6 6 2 15 17 20 40 19 40 -2z m-328 -19 c-3 -19
-1 -25 7 -20 6 4 9 13 5 19 -3 7 13 -8 37 -32 30 -31 39 -46 29 -49 -8 -3 0
-11 21 -21 23 -11 35 -24 37 -41 l3 -25 -18 21 c-10 12 -31 30 -46 39 -20 13
-25 20 -15 26 16 10 -36 61 -56 53 -7 -3 -18 2 -25 10 -10 12 -10 18 1 30 19
23 26 19 20 -10z m38 -59 c7 -8 8 -15 2 -15 -5 0 -15 7 -22 15 -7 8 -8 15 -2
15 5 0 15 -7 22 -15z"/>
<path d="M4570 4530 c0 -5 5 -10 10 -10 6 0 10 5 10 10 0 6 -4 10 -10 10 -5 0
-10 -4 -10 -10z"/>
<path d="M5190 4675 l0 -755 450 0 450 0 0 135 0 135 -280 0 -280 0 0 175 0
175 245 0 245 0 0 135 0 135 -246 2 -245 3 -2 168 -2 167 268 0 268 0 -3 138
-3 137 -432 3 -433 2 0 -755z m310 742 c0 -2 -10 -12 -22 -23 l-23 -19 19 23
c18 21 26 27 26 19z"/>
<path d="M6240 5413 c0 -10 13 -67 29 -128 59 -227 226 -859 291 -1105 l67
-255 199 0 198 0 7 30 c7 32 31 122 170 645 49 184 92 361 96 392 7 64 23 69
23 7 0 -37 22 -126 198 -809 l68 -265 190 -3 189 -2 48 178 c48 181 56 221 37
192 -7 -12 -10 -8 -10 14 0 24 2 26 15 16 12 -10 15 -7 21 17 4 15 47 179 95
363 49 184 89 343 89 353 0 10 5 27 10 37 9 18 90 315 90 333 0 4 -75 6 -167
5 l-167 -3 -8 -30 c-4 -16 -23 -106 -42 -200 -20 -93 -61 -291 -92 -440 -31
-148 -63 -313 -71 -365 -24 -152 -25 -153 -39 -65 -7 44 -51 238 -98 430 -48
193 -102 418 -122 500 -20 83 -37 156 -40 163 -2 9 -48 12 -184 12 -136 0
-182 -3 -185 -12 -7 -25 -238 -875 -266 -983 -16 -60 -29 -124 -29 -142 0 -60
-17 -42 -23 25 -4 37 -27 164 -52 282 -25 118 -54 256 -65 305 -82 397 -101
483 -110 503 -9 22 -13 22 -185 22 -160 0 -175 -1 -175 -17z m2010 -368 c0 -8
-3 -14 -7 -14 -21 3 -26 -2 -13 -12 12 -9 11 -10 -7 -6 -14 3 -23 0 -23 -7 0
-6 -11 -23 -24 -38 -14 -14 -23 -28 -20 -30 2 -3 -7 -10 -20 -17 -13 -7 -30
-24 -37 -37 -7 -13 -14 -22 -16 -20 -2 2 -15 -7 -28 -20 -26 -25 -45 -31 -45
-13 0 6 9 13 20 16 11 3 18 9 15 13 -2 4 4 15 15 25 11 10 20 14 20 9 0 -5 6
2 13 16 8 14 19 24 25 23 7 -2 11 1 10 7 -3 10 100 120 114 120 4 0 8 -7 8
-15z m-240 -247 c0 -6 -3 -8 -7 -5 -3 4 -11 -3 -17 -16 -7 -12 -24 -28 -39
-35 -15 -7 -27 -18 -27 -23 0 -6 4 -7 10 -4 6 4 7 -6 4 -24 -4 -18 -2 -37 6
-46 6 -8 9 -18 6 -23 -7 -11 15 -82 25 -82 5 0 6 -7 2 -16 -7 -20 -45 65 -47
106 0 14 -6 24 -13 23 -16 -4 -16 10 -2 60 5 20 14 37 19 37 6 0 10 7 10 15 0
9 6 12 18 8 9 -3 14 -2 9 2 -9 10 22 47 34 39 5 -3 9 -10 9 -16z m-33 -240
c-3 -8 -6 -5 -6 6 -1 11 2 17 5 13 3 -3 4 -12 1 -19z m-36 -71 c-8 -8 -11 -7
-11 4 0 20 13 34 18 19 3 -7 -1 -17 -7 -23z m8 -40 c6 -8 8 -16 5 -19 -3 -3 6
-17 20 -31 14 -14 27 -22 30 -19 4 3 5 -6 4 -20 l-2 -26 -22 21 c-16 15 -19
24 -11 29 8 5 7 8 -4 8 -13 0 -22 12 -47 63 -6 12 15 8 27 -6z m78 -134 c-3
-10 -5 -4 -5 12 0 17 2 24 5 18 2 -7 2 -21 0 -30z"/>
<path d="M4815 4950 c-3 -5 -1 -10 4 -10 6 0 11 5 11 10 0 6 -2 10 -4 10 -3 0
-8 -4 -11 -10z"/>
<path d="M8500 4280 c0 -5 5 -10 11 -10 5 0 7 5 4 10 -3 6 -8 10 -11 10 -2 0
-4 -4 -4 -10z"/>
<path d="M7475 3682 c3 -9 76 -147 162 -307 86 -159 192 -357 236 -440 44 -82
112 -211 152 -285 40 -74 90 -169 112 -210 49 -94 268 -502 382 -715 47 -88
97 -181 111 -208 14 -26 30 -45 36 -43 7 3 10 -4 7 -17 -4 -20 -3 -20 7 -4 6
10 9 25 6 32 -6 16 14 16 27 0 5 -6 6 -2 3 9 -8 24 23 63 36 44 6 -10 10 -10
18 2 6 10 6 16 0 18 -6 2 -8 8 -4 13 3 5 12 2 21 -6 13 -14 12 -17 -9 -34 -14
-12 -25 -15 -29 -9 -4 7 -9 6 -13 -1 -4 -6 -5 -15 -2 -20 7 -10 -18 -34 -26
-25 -3 3 -10 -8 -16 -24 -7 -20 -6 -33 3 -46 9 -11 14 -13 17 -5 3 9 9 8 25
-2 19 -11 25 -11 41 4 10 9 22 14 27 10 4 -5 5 0 2 10 -6 15 -3 17 15 11 16
-5 20 -3 15 9 -4 12 -2 14 11 10 15 -6 15 -5 3 10 -15 19 -2 24 16 6 9 -9 5
-18 -12 -35 -13 -13 -29 -24 -35 -24 -5 0 -10 -8 -10 -17 0 -15 -2 -16 -10 -3
-5 8 -10 11 -11 5 0 -5 -2 -22 -4 -36 -2 -20 1 -26 13 -25 9 0 21 -9 27 -22 5
-12 15 -22 22 -22 7 0 13 -4 13 -10 0 -5 -5 -10 -11 -10 -5 0 -7 -4 -4 -10 13
-21 -11 -8 -39 20 -17 18 -29 42 -31 62 -1 17 -8 34 -14 36 -8 3 -10 -4 -5
-22 4 -15 2 -26 -4 -26 -6 0 -13 14 -17 31 -5 21 -10 28 -17 21 -7 -7 11 -50
53 -131 35 -66 66 -121 69 -121 3 0 40 87 82 193 42 105 114 285 159 400 45
114 86 207 90 207 4 0 23 -13 41 -30 18 -16 35 -30 38 -30 3 0 66 61 140 135
l135 135 -50 44 c-28 24 -48 46 -45 49 3 2 98 55 211 117 206 112 207 112 323
229 l117 117 -113 43 c-62 24 -185 72 -273 107 -88 34 -261 100 -385 147 -224
85 -304 115 -790 302 -140 54 -358 137 -485 185 -126 49 -306 117 -398 153
-124 48 -167 61 -162 49z"/>
<path d="M9765 3070 c-29 -57 -34 -75 -23 -81 25 -17 219 -89 237 -89 10 0 21
9 24 19 3 14 -23 46 -98 121 l-103 103 -37 -73z"/>
<path d="M6180 2913 c-14 -2 -95 -15 -180 -29 -374 -60 -675 -137 -746 -190
-45 -33 -50 -66 -20 -128 41 -82 227 -319 379 -481 l65 -70 34 30 33 30 -30
-33 -30 -34 95 -91 c157 -151 412 -357 497 -400 45 -23 85 -22 101 4 18 28 20
1302 2 1340 -23 51 -95 70 -200 52z m190 -216 c0 -2 -15 -16 -32 -33 l-33 -29
29 33 c28 30 36 37 36 29z m-70 -70 c0 -2 -17 -19 -37 -38 l-38 -34 34 38 c33
34 41 42 41 34z m-80 -80 c0 -2 -17 -19 -37 -38 l-38 -34 34 38 c33 34 41 42
41 34z m-80 -80 c0 -2 -17 -19 -37 -38 l-38 -34 34 38 c33 34 41 42 41 34z
m-80 -80 c0 -2 -17 -19 -37 -38 l-38 -34 34 38 c33 34 41 42 41 34z m-80 -80
c0 -2 -17 -19 -37 -38 l-38 -34 34 38 c33 34 41 42 41 34z m-80 -80 c0 -2 -17
-19 -37 -38 l-38 -34 34 38 c33 34 41 42 41 34z m-80 -80 c0 -2 -17 -19 -37
-38 l-38 -34 34 38 c33 34 41 42 41 34z"/>
<path d="M6676 2899 c-15 -12 -32 -33 -37 -47 -13 -33 -12 -1308 1 -1332 12
-22 37 -29 75 -18 61 17 362 254 538 425 l88 86 -23 26 -23 26 26 -23 27 -23
115 128 c204 225 347 424 347 482 0 39 -50 80 -130 107 -162 54 -363 100 -664
149 -249 41 -302 44 -340 14z m20 -231 l29 -33 -32 29 c-18 17 -33 31 -33 33
0 8 8 1 36 -29z m80 -80 l29 -33 -32 29 c-18 17 -33 31 -33 33 0 8 8 1 36 -29z
m80 -80 l29 -33 -32 29 c-18 17 -33 31 -33 33 0 8 8 1 36 -29z m80 -80 l29
-33 -32 29 c-18 17 -33 31 -33 33 0 8 8 1 36 -29z m80 -80 l29 -33 -32 29
c-18 17 -33 31 -33 33 0 8 8 1 36 -29z m80 -80 l29 -33 -32 29 c-18 17 -33 31
-33 33 0 8 8 1 36 -29z m80 -80 l29 -33 -32 29 c-18 17 -33 31 -33 33 0 8 8 1
36 -29z m80 -80 l29 -33 -32 29 c-18 17 -33 31 -33 33 0 8 8 1 36 -29z"/>
<path d="M9980 2584 c-72 -73 -94 -101 -70 -87 19 11 91 51 159 88 l124 68
-44 18 c-24 10 -49 18 -54 18 -6 1 -58 -47 -115 -105z"/>
<path d="M4810 2516 c-118 -63 -331 -182 -355 -199 -46 -32 -95 -87 -95 -109
0 -53 56 -111 210 -220 325 -229 632 -381 950 -471 135 -38 259 -67 286 -67
10 0 -70 88 -197 218 -295 299 -447 479 -609 720 -91 136 -128 162 -190 128z
m660 -719 c0 -2 -10 -12 -22 -23 l-23 -19 19 23 c18 21 26 27 26 19z m-55 -57
c-3 -5 -12 -10 -18 -10 -7 0 -6 4 3 10 19 12 23 12 15 0z"/>
<path d="M7974 2318 c-48 -73 -155 -208 -253 -323 -114 -133 -84 -102 -326
-345 l-200 -202 45 7 c258 40 608 167 880 321 170 96 158 78 112 171 -22 43
-76 145 -121 227 -44 82 -83 157 -86 167 -9 28 -19 23 -51 -23z"/>
<path d="M9390 1995 l-135 -135 26 -23 c90 -78 237 -207 354 -312 223 -200
360 -315 375 -315 28 0 240 238 240 270 0 13 -55 69 -157 159 -87 76 -248 218
-358 315 -109 97 -202 176 -205 176 -3 0 -66 -61 -140 -135z"/>
<path d="M8790 1316 c0 -9 5 -16 10 -16 6 0 10 4 10 9 0 6 -4 13 -10 16 -5 3
-10 -1 -10 -9z"/>
</g>
</svg>
